<svg width="500" height="147" viewBox="0 0 500 147" fill="none" xmlns="http://www.w3.org/2000/svg">
<path fill-rule="evenodd" clip-rule="evenodd" d="M146.403 73.2015C146.403 113.553 113.553 146.274 73.2015 146.274C32.7208 146.274 0 113.553 0 73.2015C0 32.7208 32.8501 0 73.2015 0C113.553 0 146.403 32.7208 146.403 73.2015ZM120.278 48.1112C114.329 46.1712 108.121 44.6193 101.525 43.4553V76.1761C101.525 99.7144 91.4372 112.13 73.0721 112.13C54.7071 112.13 44.6193 99.7144 44.6193 76.1761V43.4553C38.0234 44.6193 31.8155 46.1712 25.8662 48.1112V76.3054C25.8662 102.172 47.0766 123.382 73.0721 123.382C99.0677 123.382 120.278 102.172 120.278 76.3054V48.1112ZM81.608 25.4782C78.8921 25.2196 76.0468 25.0902 73.2015 25.0902C70.3562 25.0902 67.5109 25.2196 64.795 25.4782V64.5363H81.608V25.4782Z" fill="#7000FF"/>
<path d="M369.629 74.624C369.629 84.0652 364.326 88.4625 356.437 88.4625C348.548 88.4625 343.374 84.0652 343.374 74.624V43.4553H326.303V75.2707C326.303 95.9637 343.504 104.112 356.566 104.112C369.499 104.112 386.83 95.9637 386.83 75.2707V43.4553H369.758L369.629 74.624Z" fill="#7000FF"/>
<path d="M311.688 43.4553V57.811L277.545 88.4625H313.758V102.948H254.783V88.4625L289.055 57.811H256.205V43.4553H311.688Z" fill="#7000FF"/>
<path d="M473.094 42.2912C462.23 42.2912 454.082 46.6885 450.073 53.4137C445.934 46.6885 437.01 42.2912 427.698 42.2912C409.463 42.2912 400.022 53.9311 400.022 68.4162V102.948H416.964V70.7441C416.964 63.8896 420.585 57.811 428.862 57.811C437.14 57.811 441.408 63.7603 441.408 70.4855V102.948H458.479V70.4855C458.479 63.6309 462.618 57.811 470.766 57.811C479.043 57.811 482.923 63.8896 482.923 70.7441V102.948H499.995V68.4162C500.253 53.9311 491.329 42.2912 473.094 42.2912Z" fill="#7000FF"/>
<path d="M213.267 88.4625C221.156 88.4625 226.459 84.0652 226.459 74.624L226.588 43.4553H243.66V75.2707C243.66 95.9637 226.33 104.112 213.397 104.112C200.334 104.112 183.133 95.9637 183.133 75.2707V43.4553H200.205V74.624C200.205 84.0652 205.249 88.4625 213.267 88.4625Z" fill="#7000FF"/>
</svg>
